<svg width="586" height="570" viewBox="0 0 586 570" fill="none" xmlns="http://www.w3.org/2000/svg">
<path opacity="0.1" d="M354.516 362.607C296.189 336.685 247.071 354.265 198.465 362.607C177.487 366.207 133.998 371.05 123.253 371.247C20.9245 371.727 -72.1945 485.733 80.7868 537.096C233.768 588.458 473.729 580.778 561.22 506.374C631.213 446.851 536.661 407.009 478.334 395.008C454.798 388.528 405.941 385.461 354.516 362.607Z" fill="#81B7EA"/>
<path d="M442.275 403.028C436.157 375.064 449.379 368.083 462.165 361.337C472.615 355.821 482.484 350.615 481.958 334.133C481.26 312.283 496.143 304.336 509.276 297.324C519.045 292.108 528.271 287.18 529.65 277.238C532.962 253.318 555.025 223.587 555.248 223.291L556.617 224.316C556.397 224.611 534.595 253.992 531.346 277.476C529.85 288.28 520.249 293.407 510.084 298.837C496.772 305.945 483.007 313.297 483.671 334.084C484.231 351.636 473.42 357.341 462.966 362.857C450.184 369.603 438.107 375.975 443.95 402.667L442.278 403.032L442.275 403.028Z" fill="url(#paint0_linear_2565_4212)"/>
<path d="M448.991 395.904C448.698 395.904 448.403 395.894 448.107 395.873C442.577 395.464 437.154 391.262 431.047 382.651L430.666 382.112L431.092 381.603C431.192 381.486 440.985 369.553 437.388 347.146C436.549 341.916 435.428 337.917 434.527 334.705C433.214 330.018 432.344 326.919 433.798 324.447C435.645 321.311 440.634 319.667 454.696 316.318C469.668 312.752 474.675 295.885 479.09 281.002C483.248 266.985 487.188 253.767 498.839 254.176C509.544 254.585 525.802 237.811 540.145 223.024C553.453 209.303 566.015 196.377 574.048 196.632C575.977 196.7 577.604 197.509 578.886 199.035C586.046 207.563 579.368 220.497 572.906 233.007C567.394 243.681 562.191 253.76 565.541 260.407C569.75 268.763 570.341 276.321 567.246 282.267C563.584 289.303 555.046 293.839 541.865 295.747C529.815 297.494 528.512 310.637 527.133 324.55C525.524 340.784 523.701 359.189 503.481 360.939C488.464 362.239 478.344 372.779 469.414 382.081C462.312 389.477 456.14 395.904 448.998 395.904H448.991ZM432.815 382.177C438.379 389.883 443.427 393.807 448.234 394.164C454.953 394.663 461.081 388.284 468.176 380.894C477.316 371.376 487.673 360.588 503.33 359.233C522.133 357.607 523.808 340.716 525.428 324.382C526.875 309.781 528.24 295.991 541.617 294.055C554.22 292.229 562.332 287.996 565.726 281.476C568.556 276.039 567.965 269.021 564.01 261.177C560.266 253.749 565.668 243.292 571.383 232.219C577.587 220.208 584 207.787 577.573 200.132C576.603 198.977 575.431 198.392 573.986 198.341C566.727 198.1 554.409 210.775 541.373 224.214C526.263 239.792 510.644 255.892 499.214 255.892C499.066 255.892 498.922 255.892 498.777 255.885C488.447 255.5 484.871 267.546 480.734 281.49C476.184 296.816 471.03 314.189 455.095 317.982C442.381 321.012 436.817 322.697 435.277 325.314C434.19 327.16 434.94 329.825 436.178 334.241C437.089 337.497 438.227 341.548 439.08 346.871C442.423 367.693 434.751 379.57 432.818 382.173L432.815 382.177Z" fill="url(#paint1_linear_2565_4212)"/>
<path d="M449.616 390.044C449.417 390.044 449.217 390.034 449.015 390.017C439.947 389.192 432.969 369.323 426.226 350.107C423.028 340.994 420.005 332.383 417.062 326.857C414.778 322.573 411.879 318.102 409.073 313.78C401.601 302.267 393.874 290.362 396.391 279.918C397.715 274.423 401.659 269.849 408.451 265.936C423.313 257.37 421.026 252.532 416.02 241.934C412.344 234.155 407.306 223.502 407.113 206.738C407.031 199.534 406.862 193.303 406.714 187.808C406.24 170.139 406.003 161.274 409.775 158.066C411.336 156.738 413.523 156.394 416.652 156.989C422.003 158.007 424.317 162.326 426.766 166.9C429.892 172.735 433.434 179.348 444.121 181.583C454.152 183.684 463.801 186.545 466.463 193.21C468.337 197.897 466.563 204.063 461.043 212.054C459.706 213.994 459.245 215.641 459.64 217.092C460.514 220.311 465.514 222.642 471.301 225.345C479.537 229.186 489.788 233.969 492.69 243.873C495.029 251.854 492.322 261.81 484.413 274.31C465.706 303.879 466.456 323.931 467.12 341.623C467.611 354.735 468.076 367.118 460.17 380.952C456.68 387.06 453.22 390.041 449.616 390.041V390.044ZM413.967 158.416C412.632 158.416 411.625 158.729 410.879 159.366C407.729 162.044 407.976 171.178 408.42 187.759C408.568 193.261 408.736 199.499 408.819 206.717C409.008 223.106 413.953 233.564 417.56 241.201C422.529 251.717 425.531 258.065 409.3 267.418C402.939 271.084 399.259 275.303 398.052 280.317C395.71 290.049 403.234 301.637 410.507 312.848C413.334 317.201 416.254 321.703 418.571 326.053C421.577 331.696 424.62 340.361 427.839 349.539C434.097 367.373 441.195 387.586 449.169 388.311C452.213 388.583 455.414 385.829 458.684 380.106C466.346 366.695 465.913 355.107 465.411 341.692C464.737 323.752 463.977 303.415 482.965 273.398C490.596 261.339 493.237 251.841 491.047 244.358C488.361 235.197 478.911 230.789 470.576 226.899C464.403 224.018 459.07 221.531 457.986 217.546C457.453 215.579 457.99 213.464 459.633 211.084C464.802 203.598 466.514 197.962 464.871 193.846C462.501 187.914 452.873 185.167 443.767 183.261C432.295 180.861 428.389 173.568 425.253 167.708C422.904 163.324 420.875 159.534 416.329 158.671C415.445 158.502 414.665 158.42 413.97 158.42L413.967 158.416Z" fill="url(#paint2_linear_2565_4212)"/>
<path d="M449.792 400.65L448.162 400.134C457.305 371.235 440.768 306.397 435.837 290.613C433.413 282.852 435.655 271.17 437.821 259.878C440.621 245.287 443.513 230.201 436.136 224.548C422.282 213.925 423.011 189.355 423.049 188.313L424.758 188.375C424.747 188.623 424.025 213.107 437.175 223.189C445.39 229.489 442.395 245.101 439.5 260.201C437.374 271.291 435.174 282.756 437.471 290.104C443.568 309.619 458.915 371.819 449.792 400.65Z" fill="url(#paint3_linear_2565_4212)"/>
<path d="M380.638 212.935C376.832 203.272 361.966 204.737 363.331 218.399C364.696 232.061 374.263 246.635 359.689 269.863C345.116 293.089 378.362 297.645 390.202 312.219C402.041 326.792 406.14 346.83 416.161 359.584C426.181 372.335 433.011 402.851 441.209 391.465C449.407 380.079 441.69 365.275 442.601 344.78C443.513 324.285 461.755 311.311 443.513 298.103C425.27 284.894 406.924 280.847 412.949 251.057C415.607 237.914 392.482 242.996 380.638 212.938V212.935Z" fill="url(#paint4_linear_2565_4212)"/>
<path d="M454.483 394.099C454.383 393.494 444.252 333.46 421.577 317.009C398.451 300.231 394.253 284.733 386.175 248.189L387.846 247.821C395.824 283.915 399.961 299.217 422.581 315.627C445.824 332.49 455.758 391.328 456.168 393.824L454.479 394.103L454.483 394.099Z" fill="white"/>
<path d="M434.022 391.946C434.022 391.946 440.762 375.285 428.499 351.599C416.237 327.913 406.312 331.558 435.872 313.336C465.432 295.118 436.058 237.725 461.219 230.434C486.384 223.148 508.248 130.253 527.377 142.082C546.507 153.912 521.002 199.462 534.664 213.124C548.33 226.789 550.152 244.179 521.91 258.257C493.671 272.339 541.951 326.087 503.691 342.483C465.428 358.882 476.405 423.177 434.022 391.939V391.946Z" fill="url(#paint5_linear_2565_4212)"/>
<path d="M445.71 409.621C445.669 409.408 441.553 388.074 454.551 360.505C467.794 332.421 474.131 301.719 471.504 278.377C470.084 265.736 478.179 260.791 486.012 256.012C493.722 251.304 501.697 246.435 501.256 233.983C500.857 222.731 505.62 196.356 505.823 195.238L507.508 195.544C507.46 195.816 502.577 222.855 502.965 233.924C503.44 247.377 495.032 252.511 486.903 257.476C479.19 262.188 471.903 266.634 473.203 278.192C475.865 301.836 469.468 332.882 456.095 361.241C443.355 388.263 447.34 409.081 447.381 409.287L445.703 409.628L445.71 409.621Z" fill="white"/>
<path d="M476.628 291.891C485.221 283.91 496.583 282.758 494.217 294.597C491.851 306.437 483.732 309.817 487.79 317.259C491.848 324.7 498.615 332.142 487.113 341.275C475.613 350.408 469.186 351.423 465.803 368.672C462.419 385.924 463.096 397.702 448.213 398.438C433.33 399.173 439.08 377.465 443.815 367.657C443.815 367.657 450.92 356.464 446.185 341.767C441.449 327.07 432.316 319.129 451.597 314.136C470.878 309.143 470.834 297.273 476.628 291.891Z" fill="white"/>
<path d="M449.29 409.471C449.242 407.359 448.22 357.666 457.512 349.303C467.003 340.757 468.829 325.661 469.07 317.425C469.386 306.69 483.254 300.318 483.843 300.053L484.547 301.614C484.413 301.676 471.064 307.814 470.779 317.477C470.473 327.872 468.121 342.057 458.654 350.575C449.936 358.419 450.985 408.924 450.995 409.433L449.286 409.471H449.29Z" fill="url(#paint6_linear_2565_4212)"/>
<path d="M484.2 389.188L468.781 447.677H434.328L418.912 389.188H484.2Z" fill="url(#paint7_linear_2565_4212)"/>
<path d="M484.2 389.188C484.2 389.188 450.26 395.56 450.26 447.678H434.328L418.912 389.188H484.2Z" fill="url(#paint8_linear_2565_4212)"/>
<path d="M407.324 144.539H400.656V447.68H407.324V144.539Z" fill="#706865"/>
<path d="M252.872 144.539H246.204V447.68H252.872V144.539Z" fill="#706865"/>
<path d="M237.06 17.8945H416.467C427.516 17.8945 436.484 26.8628 436.484 37.9116V377.627C436.484 388.675 427.516 397.644 416.467 397.644H237.06C226.011 397.644 217.043 388.675 217.043 377.627V37.9116C217.043 26.8628 226.011 17.8945 237.06 17.8945Z" fill="#BDAFAA"/>
<path d="M242.841 24.0098H410.683C421.598 24.0098 430.463 32.8715 430.463 43.7895V363.03C430.463 373.945 421.601 382.81 410.683 382.81H242.841C231.926 382.81 223.061 373.948 223.061 363.03V43.7895C223.061 32.8749 231.923 24.0098 242.841 24.0098Z" fill="white"/>
<path d="M359.46 15.0176H294.068V29.7836H359.46V15.0176Z" fill="#706865"/>
<path d="M245.75 105.718H265.609C269.216 105.718 272.146 108.648 272.146 112.255V132.114C272.146 135.721 269.216 138.651 265.609 138.651H245.75C242.142 138.651 239.213 135.721 239.213 132.114V112.255C239.213 108.648 242.142 105.718 245.75 105.718Z" fill="#73B6F0"/>
<path opacity="0.72" d="M395.026 62.0967H287.868C285.989 62.0967 284.467 63.6193 284.467 65.4976V68.9261C284.467 70.8043 285.989 72.327 287.868 72.327H395.026C396.905 72.327 398.427 70.8043 398.427 68.9261V65.4976C398.427 63.6193 396.905 62.0967 395.026 62.0967Z" fill="#D9D9D9"/>
<path opacity="0.72" d="M410.913 78.6348H287.868C285.989 78.6348 284.467 80.1574 284.467 82.0357V85.4641C284.467 87.3424 285.989 88.8651 287.868 88.8651H410.913C412.792 88.8651 414.314 87.3424 414.314 85.4641V82.0357C414.314 80.1574 412.792 78.6348 410.913 78.6348Z" fill="#D9D9D9"/>
<path d="M265.609 59.0127H245.75C242.139 59.0127 239.213 61.9394 239.213 65.5498V85.4121C239.213 89.0224 242.139 91.9491 245.75 91.9491H265.609C269.219 91.9491 272.146 89.0224 272.146 85.4121V65.5498C272.146 61.9394 269.219 59.0127 265.609 59.0127Z" fill="#EB4646"/>
<path opacity="0.72" d="M367.176 108.802H287.414C285.786 108.802 284.467 110.121 284.467 111.749V116.085C284.467 117.713 285.786 119.032 287.414 119.032H367.176C368.803 119.032 370.123 117.713 370.123 116.085V111.749C370.123 110.121 368.803 108.802 367.176 108.802Z" fill="#D9D9D9"/>
<path opacity="0.72" d="M386.756 125.339H287.53C285.838 125.339 284.467 126.711 284.467 128.403V132.505C284.467 134.197 285.838 135.569 287.53 135.569H386.756C388.448 135.569 389.82 134.197 389.82 132.505V128.403C389.82 126.711 388.448 125.339 386.756 125.339Z" fill="#D9D9D9"/>
<path opacity="0.72" d="M288.016 155.507H405.188C407.148 155.507 408.74 157.099 408.74 159.059V162.185C408.74 164.145 407.148 165.737 405.188 165.737H288.016C286.056 165.737 284.463 164.145 284.463 162.185V159.059C284.463 157.099 286.056 155.507 288.016 155.507Z" fill="#D9D9D9"/>
<path opacity="0.72" d="M287.651 172.046H395.24C396.997 172.046 398.424 173.473 398.424 175.23V179.088C398.424 180.846 396.997 182.273 395.24 182.273H287.651C285.894 182.273 284.467 180.846 284.467 179.088V175.23C284.467 173.473 285.894 172.046 287.651 172.046Z" fill="#D9D9D9"/>
<path d="M245.75 152.423H265.609C269.216 152.423 272.146 155.353 272.146 158.96V178.819C272.146 182.426 269.216 185.356 265.609 185.356H245.75C242.142 185.356 239.213 182.426 239.213 178.819V158.96C239.213 155.353 242.142 152.423 245.75 152.423Z" fill="#73B6F0"/>
<path d="M265.609 248.203H245.75C242.139 248.203 239.213 251.13 239.213 254.74V274.602C239.213 278.213 242.139 281.14 245.75 281.14H265.609C269.219 281.14 272.146 278.213 272.146 274.602V254.74C272.146 251.13 269.219 248.203 265.609 248.203Z" fill="#73B6F0"/>
<path opacity="0.72" d="M395.026 204.583H287.868C285.989 204.583 284.467 206.106 284.467 207.984V211.409C284.467 213.287 285.989 214.81 287.868 214.81H395.026C396.905 214.81 398.427 213.287 398.427 211.409V207.984C398.427 206.106 396.905 204.583 395.026 204.583Z" fill="#D9D9D9"/>
<path opacity="0.72" d="M410.913 221.119H287.868C285.989 221.119 284.467 222.642 284.467 224.52V227.949C284.467 229.827 285.989 231.349 287.868 231.349H410.913C412.792 231.349 414.314 229.827 414.314 227.949V224.52C414.314 222.642 412.792 221.119 410.913 221.119Z" fill="#D9D9D9"/>
<path d="M265.609 201.496H245.75C242.139 201.496 239.213 204.423 239.213 208.033V227.895C239.213 231.506 242.139 234.433 245.75 234.433H265.609C269.219 234.433 272.146 231.506 272.146 227.895V208.033C272.146 204.423 269.219 201.496 265.609 201.496Z" fill="#73B6F0"/>
<path opacity="0.72" d="M367.176 251.287H287.414C285.787 251.287 284.467 252.607 284.467 254.234V258.57C284.467 260.198 285.787 261.517 287.414 261.517H367.176C368.804 261.517 370.123 260.198 370.123 258.57V254.234C370.123 252.607 368.804 251.287 367.176 251.287Z" fill="#D9D9D9"/>
<path opacity="0.72" d="M287.527 267.825H386.756C388.448 267.825 389.82 269.197 389.82 270.889V274.992C389.82 276.683 388.448 278.056 386.756 278.056H287.527C285.835 278.056 284.463 276.683 284.463 274.992V270.889C284.463 269.197 285.835 267.825 287.527 267.825Z" fill="#D9D9D9"/>
<path opacity="0.72" d="M288.016 297.992H405.188C407.148 297.992 408.74 299.584 408.74 301.544V304.67C408.74 306.63 407.148 308.222 405.188 308.222H288.016C286.056 308.222 284.463 306.63 284.463 304.67V301.544C284.463 299.584 286.056 297.992 288.016 297.992Z" fill="#D9D9D9"/>
<path opacity="0.72" d="M287.651 314.531H395.24C396.997 314.531 398.424 315.958 398.424 317.716V321.574C398.424 323.331 396.997 324.758 395.24 324.758H287.651C285.894 324.758 284.467 323.331 284.467 321.574V317.716C284.467 315.958 285.894 314.531 287.651 314.531Z" fill="#D9D9D9"/>
<path d="M245.75 294.908H265.609C269.216 294.908 272.146 297.838 272.146 301.445V321.304C272.146 324.911 269.216 327.841 265.609 327.841H245.75C242.142 327.841 239.213 324.911 239.213 321.304V301.445C239.213 297.838 242.142 294.908 245.75 294.908Z" fill="#73B6F0"/>
<path d="M452.165 72.3274H450.081V2.08389H415.136V0H452.165V72.3274Z" fill="#BDAFAA"/>
<path d="M256.65 219.57C256.65 219.57 259.346 225.722 261.932 224.952C264.515 224.182 268.353 224.405 269.556 224.539C271.165 224.715 276.403 223.487 276.093 225.444C275.784 227.4 267.544 227.861 265.818 228.288C264.095 228.714 270.289 233.095 270.722 234.78C271.155 236.465 262.503 246.228 258.638 242.73C254.773 239.237 253.174 232.951 252.362 232.469C251.547 231.991 247.999 226.981 247.999 226.981L256.65 219.563V219.57Z" fill="#EEA886"/>
<path d="M270.031 233.757C270.031 233.757 281.086 245.242 281.124 246.628C281.162 248.014 280.447 248.581 279.367 247.55C278.284 246.518 268.336 236.766 268.336 236.766C268.336 236.766 278.927 252.57 279.219 253.688C279.391 254.341 278.071 255.514 277.434 255.015C276.798 254.517 265.333 239.469 265.333 239.469C265.333 239.469 275.196 254.245 275.144 255.263C275.1 256.153 273.621 256.951 272.809 255.906C271.998 254.86 262.008 241.68 262.008 241.68C262.008 241.68 268.459 252.897 267.885 253.757C267.534 254.283 266.441 255.345 264.876 252.395C263.308 249.444 258.831 242.897 258.831 242.897L270.031 233.757Z" fill="#EEA886"/>
<path d="M69.5305 29.7832H124.678V69.7554V78.1769L116.26 69.7554H69.5305V29.7832Z" fill="#FFC655"/>
<path d="M118.069 437.237C118.069 437.237 113.832 440.263 111.483 442.382C109.135 444.5 105.94 446.807 103.983 452.213C102.003 457.684 105.122 461.618 110.421 461.941C115.72 462.265 123.839 458.265 124.63 453.413C125.414 448.609 131.638 449.177 132.449 445.759C133.261 442.34 132.178 438.135 132.178 438.135L118.069 437.237Z" fill="#C4C6D1"/>
<path d="M118.774 433.267L118.069 437.238C118.069 437.238 120.252 441.275 132.178 438.136L131.563 434.223L118.774 433.267Z" fill="#EEA886"/>
<path d="M132.178 438.136C132.178 438.136 129.492 438.49 127.577 438.789C125.662 439.092 121.872 436.643 118.069 437.238L119.238 442.07C119.238 442.07 131.91 439.697 132.178 438.136Z" fill="#C4C6D1"/>
<path d="M194.186 437.237C194.186 437.237 198.422 440.263 200.771 442.382C203.12 444.5 206.314 446.807 208.271 452.213C210.252 457.684 207.133 461.618 201.833 461.941C196.534 462.265 188.415 458.265 187.625 453.413C186.84 448.609 180.616 449.177 179.805 445.759C178.993 442.34 180.076 438.135 180.076 438.135L194.186 437.237Z" fill="#C4C6D1"/>
<path d="M193.477 433.267L194.182 437.238C194.182 437.238 191.998 441.275 180.073 438.136L180.688 434.223L193.477 433.267Z" fill="#EEA886"/>
<path d="M198.563 340.663C198.563 349.394 195.107 432.427 195.107 432.427C194.234 435.336 182.408 435.185 179.499 433.73C176.59 432.275 177.099 350.595 176.559 341.791C176.022 332.988 168.945 268.222 166.394 268.515C163.842 268.807 149.417 329.814 147.377 336.509C145.342 343.201 133.598 433.685 133.598 433.685C123.646 437.148 117.195 433.685 117.195 433.685C117.195 433.685 120.999 342.472 121.002 331.64C121.002 327.62 122.188 324.58 123.327 303.208C124.193 286.919 128.729 253.539 131.762 230.571C131.872 229.753 131.975 228.969 132.075 228.219C132.67 223.749 133.113 220.465 133.33 218.89C133.423 218.209 133.474 217.845 133.474 217.845C134.293 217.47 135.146 217.123 136.036 216.799C157.35 209.141 198.46 217.246 198.46 217.246C198.46 217.246 198.484 217.449 198.529 217.827C198.584 218.288 198.67 219.014 198.78 219.949C199.017 221.975 199.368 224.99 199.774 228.491C199.774 228.515 199.781 228.543 199.781 228.567C199.791 228.67 199.805 228.78 199.818 228.887C201.252 241.342 201.964 248.185 203.089 261.476C203.336 264.392 198.556 331.936 198.556 340.663H198.563Z" fill="#292C47"/>
<path d="M179.292 99.868C179.292 99.868 214.199 107.279 217.108 116.979C220.017 126.68 225.667 149.462 233.528 174.242C238.229 189.066 262.125 222.828 262.125 222.828C262.125 222.828 248.452 232.903 248.452 231.545C248.452 230.187 216.259 187.226 215.87 181.989C215.482 176.752 205.726 149.964 205.726 149.964C205.726 149.964 201.104 201.466 201.104 209.423C201.104 217.381 201.63 233.488 201.63 233.488C201.63 233.488 188.697 238.443 163.58 237.133C163.58 237.133 123.605 235.761 130.427 223.577C135.585 214.365 132.425 152.385 131.648 151.996C130.871 151.608 116.937 169.063 118.295 172.422C119.654 175.782 155.719 187.835 155.719 187.835C155.719 187.835 156.775 191.717 151.17 200.521C151.17 200.521 97.2983 184.778 97.1057 181.48C96.9131 178.182 119.513 114.129 126.892 110.776C137.518 105.948 165.307 98.3584 165.307 98.3584L179.292 99.8714V99.868Z" fill="#428BD3"/>
<path d="M180.077 438.136C180.077 438.136 182.762 438.49 184.678 438.789C186.593 439.092 190.383 436.643 194.186 437.238L193.017 442.07C193.017 442.07 180.345 439.697 180.077 438.136Z" fill="#C4C6D1"/>
<path d="M178.725 87.7264C178.725 87.7264 177.288 95.6081 179.76 100.993C179.76 100.993 182.277 113.538 169.433 114.102C156.59 114.666 156.294 103.156 156.294 103.156C156.294 103.156 159.368 99.0296 157.315 87.8055C155.266 76.578 178.722 87.7264 178.722 87.7264H178.725Z" fill="#EEA886"/>
<path d="M170.919 42.1406C170.919 42.1406 187.353 44.7919 184.853 71.1259C182.349 97.4599 167.845 95.3004 166.875 95.2729C165.905 95.2454 152.315 95.7543 151.253 63.6019C151.253 63.6019 150.788 39.8298 170.919 42.1406Z" fill="#EEA886"/>
<path d="M185.103 63.6845C185.103 63.6845 186.902 61.7175 187.562 63.7086C188.222 65.6996 185.217 74.2862 184.997 75.0049C184.997 75.0049 184.667 75.7786 184.237 75.3522C183.804 74.9258 185.103 63.6845 185.103 63.6845Z" fill="#EEA886"/>
<path d="M151.652 63.3523C151.652 63.3523 149.891 61.3475 149.193 63.3282C148.495 65.309 151.404 74.3357 151.545 74.6727C151.545 74.6727 151.858 75.4533 152.298 75.0338C152.738 74.6177 151.652 63.3489 151.652 63.3489V63.3523Z" fill="#EEA886"/>
<path d="M185.097 67.7265L182.745 70.9486C182.745 70.9486 182.81 63.8854 182.435 62.7781C182.057 61.6709 182.882 57.816 182.566 57.0182C182.25 56.2204 171.325 59.1881 153.409 57.3621C153.409 57.3621 155.403 63.7238 154.234 64.1777C153.065 64.6282 153.639 72.4479 153.639 72.4479L151.703 70.2127C151.703 70.2127 149.519 56.8566 149.733 54.6249C150.015 51.6572 149.011 37.799 174.22 40.1786C177.105 40.4503 179.877 41.5094 182.184 43.3079C184.774 45.3299 187.439 48.4867 187.195 52.8229C186.871 58.5519 185.1 67.7265 185.1 67.7265H185.097Z" fill="#434343"/>
<path d="M159.385 91.7842C159.385 91.7842 166.166 99.7002 176.93 91.7842C176.93 91.7842 173.914 97.7883 167.583 97.9292C161.256 98.0702 159.385 91.7842 159.385 91.7842Z" fill="#A77860"/>
<path d="M179.143 145.474L128.359 130.729L106.155 207.206L156.939 221.951L179.143 145.474Z" fill="#6E6760"/>
<path d="M165.18 187.285C165.18 187.285 168.495 187.192 169.509 187.047C170.524 186.899 169.853 189.059 168.677 189.468C167.497 189.877 165.18 187.288 165.18 187.288V187.285Z" fill="#C98462"/>
<path d="M167.119 203.117C167.119 203.117 165.672 203.468 164.963 203.313C164.963 203.313 163.698 202.932 162.78 202.715C162.487 202.646 162.233 202.595 162.064 202.577C161.363 202.509 159.798 202.564 158.154 201.921C156.514 201.281 150.95 198.427 150.95 198.427L152.542 193.255L153.742 189.156C153.742 189.156 163.147 186.653 164.743 187.075C164.898 187.117 165.053 187.165 165.19 187.22C166.507 187.708 167.284 188.623 167.948 188.96C168.192 189.084 170.52 190.483 170.641 191.285C170.809 192.399 170.475 193.238 169.901 193.757C169.901 193.757 170.138 195.951 169.323 197.196C169.323 197.196 169.605 199.214 168.154 200.473C168.154 200.473 168.213 202.553 167.116 203.117H167.119Z" fill="#EEA886"/>
<path d="M155.72 187.832C155.72 187.832 156.191 194.434 151.17 200.518C151.17 200.518 111.611 188.172 106.899 186.319C102.188 184.466 124.021 126.45 124.021 126.45L140.084 131.918L131.452 148.238C131.452 148.238 127.181 157.382 118.296 172.42C118.296 172.42 123.763 177.612 155.72 187.832Z" fill="#428BD3"/>
<path d="M147.518 173.271C147.518 177.611 144.533 181.132 140.854 181.132C137.175 181.132 134.19 177.614 134.19 173.271C134.19 168.928 137.175 165.41 140.854 165.41C144.533 165.41 147.518 168.928 147.518 173.271Z" fill="#807066"/>
<path d="M183.574 109.018L179.922 97.5156C179.922 97.5156 174.048 100.249 157.023 98.3547L153.154 109.362C153.154 109.362 167.766 122.092 183.574 109.022V109.018Z" fill="#428BD3"/>
<defs>
<linearGradient id="paint0_linear_2565_4212" x1="440.731" y1="313.16" x2="556.617" y2="313.16" gradientUnits="userSpaceOnUse">
<stop stop-color="#3076A1"/>
<stop offset="1" stop-color="#639C38"/>
</linearGradient>
<linearGradient id="paint1_linear_2565_4212" x1="430.666" y1="296.266" x2="581.968" y2="296.266" gradientUnits="userSpaceOnUse">
<stop stop-color="#3076A1"/>
<stop offset="1" stop-color="#639C38"/>
</linearGradient>
<linearGradient id="paint2_linear_2565_4212" x1="395.903" y1="273.374" x2="493.498" y2="273.374" gradientUnits="userSpaceOnUse">
<stop stop-color="#3076A1"/>
<stop offset="1" stop-color="#639C38"/>
</linearGradient>
<linearGradient id="paint3_linear_2565_4212" x1="423.031" y1="294.478" x2="452.622" y2="294.478" gradientUnits="userSpaceOnUse">
<stop stop-color="#3076A1"/>
<stop offset="1" stop-color="#639C38"/>
</linearGradient>
<linearGradient id="paint4_linear_2565_4212" x1="356.058" y1="300.345" x2="451.587" y2="300.345" gradientUnits="userSpaceOnUse">
<stop stop-color="#3076A1"/>
<stop offset="1" stop-color="#639C38"/>
</linearGradient>
<linearGradient id="paint5_linear_2565_4212" x1="420.023" y1="516.784" x2="500.393" y2="204.224" gradientUnits="userSpaceOnUse">
<stop stop-color="#3076A1"/>
<stop offset="1" stop-color="#639C38"/>
</linearGradient>
<linearGradient id="paint6_linear_2565_4212" x1="449.235" y1="354.76" x2="484.551" y2="354.76" gradientUnits="userSpaceOnUse">
<stop stop-color="#3076A1"/>
<stop offset="1" stop-color="#639C38"/>
</linearGradient>
<linearGradient id="paint7_linear_2565_4212" x1="418.912" y1="418.431" x2="484.2" y2="418.431" gradientUnits="userSpaceOnUse">
<stop stop-color="#BAD0DE"/>
<stop offset="1" stop-color="#F5F2FF"/>
</linearGradient>
<linearGradient id="paint8_linear_2565_4212" x1="418.912" y1="418.432" x2="484.2" y2="418.432" gradientUnits="userSpaceOnUse">
<stop stop-color="#9FA0AD"/>
<stop offset="0.99" stop-color="#55B5FF"/>
</linearGradient>
</defs>
</svg>
